<?xml version="1.0" encoding="utf-8"?>
<!-- Generator: Adobe Illustrator 18.1.0, SVG Export Plug-In . SVG Version: 6.00 Build 0)  -->
<svg version="1.1" id="Ebene_1" xmlns="http://www.w3.org/2000/svg" xmlns:xlink="http://www.w3.org/1999/xlink" x="0px" y="0px"
	 viewBox="0 0 232 70" enable-background="new 0 0 232 70" xml:space="preserve">
<g>
	<polygon fill="#FFF" points="32.6,2.8 62.5,14.5 62.5,24.9 65.1,23.9 65.1,12.7 32.6,0 6.4,9.2 10.1,10.6 	"/>
	<polygon fill="#FFF" points="25,65 2.6,56.2 2.6,15.6 32.6,27.2 57.8,17.8 54.3,16.3 32.6,24.4 0,11.7 0,58 25,67.8 	"/>
</g>
<g>
	<path fill="#FFF" d="M37.3,68.5L37.3,68.5c-0.5,1.1-1.2,1.5-2.3,1.5c-1.9,0-2.5-1.3-2.5-3c0-2.8,2.7-2.9,4.8-2.9
		c0-1.2,0.1-2.6-1.5-2.6c-1,0-1.5,0.7-1.4,1.6h-1.6c0.1-2.1,1.2-2.8,3.1-2.8c2.4,0,3,1.2,3,2.8v4.4c0,0.7,0.1,1.5,0.2,2.2h-1.6V68.5
		z M33.9,67.1c0,0.9,0.4,1.7,1.4,1.7c0.9,0,2-0.6,1.9-3.5C35.8,65.3,33.9,65.1,33.9,67.1z"/>
	<path fill="#FFF" d="M43.7,62L43.7,62c0.7-1.4,1.4-1.6,2.9-1.6V62c-0.3,0-0.5-0.1-0.8-0.1c-1.7,0-2.1,1.3-2.1,2.5v5.4h-1.5v-9.2
		h1.5V62z"/>
	<path fill="#FFF" d="M53.5,63.6c0-1.5-0.7-1.9-1.3-1.9c-1.1,0-1.9,0.5-1.9,3.1c0,3,0.4,4.1,1.9,4.1c0.3,0,1.4-0.4,1.3-2h1.6
		c0.1,2.6-1.9,3.2-2.9,3.2c-1.9,0-3.5-0.6-3.5-4.6c0-2.7,0.3-4.9,3.5-4.9c1.8,0,2.9,1.1,2.8,3.1H53.5z"/>
	<path fill="#FFF" d="M63.3,69.8v-6.2c0-1.1-0.4-1.9-1.6-1.9c-1.5,0-1.9,1.2-1.9,2.8v5.4h-1.5V56.7h1.5v5.1h0.1
		c0.6-1.1,1.3-1.4,2.5-1.4c1.6,0,2.4,0.8,2.4,2.9v6.5H63.3z"/>
	<path fill="#FFF" d="M67.8,56.7h1.7v1.6h-1.7V56.7z M69.4,69.8h-1.5v-9.2h1.5V69.8z"/>
	<path fill="#FFF" d="M72.7,60.6v-1.8l1.5-0.7v2.4h2v1.1h-2v5.6c0,0.6,0,1.3,1.4,1.3c0.1,0,0.3,0,0.7-0.1v1.1
		c-0.5,0-1,0.1-1.5,0.1c-1.4,0-2.1-0.6-2.1-1.6v-6.5h-1.5v-1.1H72.7z"/>
	<path fill="#FFF" d="M79.6,65.7c0,2.6,0.7,3.1,1.9,3.1c1,0,1.5-0.8,1.6-1.8h1.6c0,2-1.3,3-3.2,3c-1.9,0-3.5-0.6-3.5-4.6
		c0-2.7,0.3-4.9,3.5-4.9c2.6,0,3.3,1.4,3.3,4.5v0.8H79.6z M83.2,64.6c0-2.7-0.7-3-1.8-3c-0.9,0-1.7,0.5-1.7,3H83.2z"/>
	<path fill="#FFF" d="M89.2,69.8h-1.5V56.7h1.5v7.9h0l2.8-4h1.8l-3,4l3.6,5.3h-1.9l-3.3-5.2h0V69.8z"/>
	<path fill="#FFF" d="M96.5,60.6v-1.8l1.5-0.7v2.4h2v1.1h-2v5.6c0,0.6,0,1.3,1.4,1.3c0.1,0,0.3,0,0.7-0.1v1.1
		c-0.5,0-1,0.1-1.5,0.1c-1.4,0-2.1-0.6-2.1-1.6v-6.5H95v-1.1H96.5z"/>
	<path fill="#FFF" d="M103.4,65.7c0,2.6,0.7,3.1,1.9,3.1c1,0,1.5-0.8,1.6-1.8h1.6c0,2-1.3,3-3.2,3c-1.9,0-3.5-0.6-3.5-4.6
		c0-2.7,0.3-4.9,3.5-4.9c2.6,0,3.3,1.4,3.3,4.5v0.8H103.4z M107,64.6c0-2.7-0.7-3-1.8-3c-0.9,0-1.7,0.5-1.7,3H107z"/>
	<path fill="#FFF" d="M116.5,69.8v-6.4c0-1-0.3-1.8-1.6-1.8c-1.6,0-1.9,1.5-1.9,2.7v5.5h-1.5v-7.3c0-0.6,0-1.3-0.1-1.9h1.6v1.2
		h0.1c0.6-1,1.3-1.4,2.4-1.4c2,0,2.4,1.2,2.4,3v6.4H116.5z"/>
</g>
<g>
	<rect x="62.5" y="30.5" fill="#FFFFFF" width="2.6" height="2.9"/>
	<rect x="56.6" y="30.5" fill="#FFFFFF" width="2.6" height="2.9"/>
	<path fill="#FFFFFF" d="M46.3,36c-1.4,0-2.8,0.3-3.7,2c-0.6-1.4-2.2-2-3.6-2c-1.8,0-3.1,0.6-3.9,2.2h-0.1v-1.9h-2.7
		c0.1,1.1,0.2,2.2,0.2,3.2v12.3h2.5V41.4c0-0.6,0.1-1.5,0.6-2.3c0.4-0.6,1.4-1,2.2-1c2,0,2.4,1.4,2.4,3v10.8h2.5V41.4
		c0-0.6,0.1-2.1,0.9-2.7c0.7-0.6,0.9-0.6,1.9-0.6c2,0,2.4,1.4,2.4,3v10.8h2.5V40C50.5,36.4,47.9,36,46.3,36z"/>
	<path fill="#FFFFFF" d="M66.2,36.3h-2.5v10.3c0,2.6-1.7,3.6-3,3.6c-1.8,0-2.6-1.3-2.6-3.1V36.3h-2.5v11.8c0,2.6,1.5,4,4.2,4
		c1.6,0,3.1-0.8,3.9-2.2h0.1v1.9h2.7c-0.1-1.1-0.2-2.2-0.2-3.2V36.3z"/>
	<rect x="71.3" y="29.6" fill="#FFFFFF" width="2.5" height="22.2"/>
	<rect x="78.7" y="29.6" fill="#FFFFFF" width="2.5" height="22.2"/>
	<path fill="#FFFFFF" d="M91.9,36c-5.4,0-5.9,3.8-5.9,8.3c0,6.9,2.6,7.8,5.9,7.8c3.2,0,5.4-1.6,5.4-5h-2.8c-0.1,1.6-1,3-2.7,3
		c-2,0-3.1-0.9-3.1-5.2h8.7v-1.3C97.4,38.4,96.3,36,91.9,36z M88.7,43c0-4.3,1.3-5.1,2.9-5.1c1.8,0,3.1,0.6,3.1,5.1H88.7z"/>
	<path fill="#FFFFFF" d="M104.9,38.7L104.9,38.7l-0.1-2.3h-2.5v15.5h2.5v-9.2c0-2.1,0.7-4.2,3.5-4.2c0.5,0,0.9,0.1,1.3,0.2V36
		C107.2,36,105.9,36.3,104.9,38.7z"/>
	<polygon fill="#FFFFFF" points="123.8,37.7 121.9,37.7 121.9,43.1 116.5,43.1 116.5,45 121.9,45 121.9,50.4 123.8,50.4 123.8,45 
		129.2,45 129.2,43.1 123.8,43.1 	"/>
	<path fill="#FFFFFF" d="M144.1,36c-1.6,0-2.7,0.7-3.6,2.2h-0.1v-1.8h-2.5v21.4h2.5v-7.4h0.1c0.9,1.2,1.9,1.9,3.4,1.9
		c5,0,5.1-4.5,5.1-8.3C149.1,37,146.5,36,144.1,36z M143.4,50.1c-2.8,0-2.9-3.3-2.9-5.4c0-2.4-0.3-6.7,2.8-6.7
		c3.2,0,3.2,3.4,3.2,5.8C146.4,48,146.1,50.1,143.4,50.1z"/>
	<path fill="#FFFFFF" d="M164.1,40.7c0-2.6-1-4.7-5-4.7c-3.3,0-5.1,1.2-5.2,4.7h2.7c-0.2-1.6,0.7-2.8,2.4-2.8c2.7,0,2.7,2.2,2.6,4.3
		c-3.5-0.1-8.1,0.1-8.1,4.8c0,3,0.9,5.1,4.2,5.1c1.9,0,3.1-0.8,3.9-2.6h0.1v2.2h2.8c-0.2-1.2-0.3-2.5-0.3-3.7V40.7z M158.4,50.1
		c-1.7,0-2.4-1.4-2.4-2.9c0-3.3,3.2-3.1,5.6-3.1C161.8,49.1,159.9,50.1,158.4,50.1z"/>
	<path fill="#FFFFFF" d="M172.3,38.7L172.3,38.7l-0.1-2.3h-2.5v15.5h2.5v-9.2c0-2.1,0.7-4.2,3.5-4.2c0.5,0,0.9,0.1,1.3,0.2V36
		C174.6,36,173.3,36.3,172.3,38.7z"/>
	<path fill="#FFFFFF" d="M185.1,47.7v-9.5h3.4v-1.9h-3.4v-4.1l-2.5,1.1v3H180v1.9h2.5v11c0,1.8,1.1,2.8,3.5,2.8
		c0.8,0,1.7-0.2,2.5-0.2v-1.9c-0.6,0.1-0.9,0.1-1.1,0.1C185.1,50,185.1,48.7,185.1,47.7z"/>
	<path fill="#FFFFFF" d="M199.4,36c-2,0-3.2,0.6-4.1,2.3h-0.1v-2h-2.7c0.1,1.1,0.2,2.2,0.2,3.2v12.3h2.5v-9.2c0-2.1,0.4-4.6,3.2-4.6
		c2.1,0,2.7,1.4,2.7,3v10.8h2.5V41.1C203.6,38,202.7,36,199.4,36z"/>
	<path fill="#FFFFFF" d="M214.2,36c-5.4,0-5.9,3.8-5.9,8.3c0,6.9,2.6,7.8,5.9,7.8c3.2,0,5.4-1.6,5.4-5h-2.8c-0.1,1.6-1,3-2.7,3
		c-2,0-3.1-0.9-3.1-5.2h8.7v-1.3C219.8,38.4,218.7,36,214.2,36z M211.1,43c0-4.3,1.3-5.1,2.9-5.1c1.8,0,3.1,0.6,3.1,5.1H211.1z"/>
	<path fill="#FFFFFF" d="M227.2,38.7L227.2,38.7l-0.1-2.3h-2.5v15.5h2.5v-9.2c0-2.1,0.7-4.2,3.5-4.2c0.5,0,0.9,0.1,1.3,0.2V36
		C229.6,36,228.3,36.3,227.2,38.7z"/>
</g>
</svg>
