<svg xmlns="http://www.w3.org/2000/svg" width="683.389" height="501.007" viewBox="0 0 683.389 501.007">
  <path id="envelope-solid" d="M670.442,229.437c5.206-4.045,12.947-.261,12.947,6.132V502.381c0,34.575-28.7,62.626-64.068,62.626H64.068C28.7,565.007,0,536.955,0,502.381V235.7c0-6.524,7.608-10.177,12.947-6.132,29.9,22.7,69.54,51.536,205.684,148.214,28.163,20.092,75.68,62.365,123.063,62.1,47.65.391,96.1-42.794,123.2-62.1C601.035,281.1,640.544,252.138,670.442,229.437ZM341.694,398c30.966.522,75.547-38.1,97.97-54.015,177.12-125.643,190.6-136.6,231.445-167.915a30.972,30.972,0,0,0,12.28-24.659V126.626c0-34.575-28.7-62.626-64.068-62.626H64.068C28.7,64,0,92.051,0,126.626v24.789a31.16,31.16,0,0,0,12.28,24.659C53.123,207.257,66.6,218.347,243.724,343.99c22.424,15.917,67,54.537,97.97,54.015Z" transform="translate(0 -64)" fill="#585abd" opacity="0.17"/>
</svg>
