<?xml version="1.0" standalone="no"?>
<svg xmlns:xlink="http://www.w3.org/1999/xlink" id="wave" style="transform:rotate(0deg); transition: 0.3s" viewBox="0 0 1440 490" version="1.1" xmlns="http://www.w3.org/2000/svg"><defs><linearGradient id="sw-gradient-0" x1="0" x2="0" y1="1" y2="0"><stop stop-color="rgba(24.425, 23.149, 30.025, 1)" offset="0%"/><stop stop-color="rgba(77.065, 79.624, 93.775, 1)" offset="100%"/></linearGradient></defs><path style="transform:translate(0, 0px); opacity:1" fill="url(#sw-gradient-0)" d="M0,441L48,375.7C96,310,192,180,288,171.5C384,163,480,278,576,318.5C672,359,768,327,864,261.3C960,196,1056,98,1152,65.3C1248,33,1344,65,1440,73.5C1536,82,1632,65,1728,89.8C1824,114,1920,180,2016,245C2112,310,2208,376,2304,367.5C2400,359,2496,278,2592,228.7C2688,180,2784,163,2880,147C2976,131,3072,114,3168,130.7C3264,147,3360,196,3456,212.3C3552,229,3648,212,3744,228.7C3840,245,3936,294,4032,294C4128,294,4224,245,4320,253.2C4416,261,4512,327,4608,318.5C4704,310,4800,229,4896,220.5C4992,212,5088,278,5184,310.3C5280,343,5376,343,5472,294C5568,245,5664,147,5760,147C5856,147,5952,245,6048,253.2C6144,261,6240,180,6336,138.8C6432,98,6528,98,6624,147C6720,196,6816,294,6864,343L6912,392L6912,490L6864,490C6816,490,6720,490,6624,490C6528,490,6432,490,6336,490C6240,490,6144,490,6048,490C5952,490,5856,490,5760,490C5664,490,5568,490,5472,490C5376,490,5280,490,5184,490C5088,490,4992,490,4896,490C4800,490,4704,490,4608,490C4512,490,4416,490,4320,490C4224,490,4128,490,4032,490C3936,490,3840,490,3744,490C3648,490,3552,490,3456,490C3360,490,3264,490,3168,490C3072,490,2976,490,2880,490C2784,490,2688,490,2592,490C2496,490,2400,490,2304,490C2208,490,2112,490,2016,490C1920,490,1824,490,1728,490C1632,490,1536,490,1440,490C1344,490,1248,490,1152,490C1056,490,960,490,864,490C768,490,672,490,576,490C480,490,384,490,288,490C192,490,96,490,48,490L0,490Z"/><defs><linearGradient id="sw-gradient-1" x1="0" x2="0" y1="1" y2="0"><stop stop-color="rgba(53.466, 54.743, 64.177, 1)" offset="0%"/><stop stop-color="rgba(74.598, 79.337, 96.052, 1)" offset="100%"/></linearGradient></defs><path style="transform:translate(0, 50px); opacity:0.9" fill="url(#sw-gradient-1)" d="M0,49L48,73.5C96,98,192,147,288,204.2C384,261,480,327,576,318.5C672,310,768,229,864,171.5C960,114,1056,82,1152,89.8C1248,98,1344,147,1440,204.2C1536,261,1632,327,1728,359.3C1824,392,1920,392,2016,392C2112,392,2208,392,2304,400.2C2400,408,2496,425,2592,424.7C2688,425,2784,408,2880,367.5C2976,327,3072,261,3168,245C3264,229,3360,261,3456,277.7C3552,294,3648,294,3744,294C3840,294,3936,294,4032,253.2C4128,212,4224,131,4320,155.2C4416,180,4512,310,4608,359.3C4704,408,4800,376,4896,359.3C4992,343,5088,343,5184,351.2C5280,359,5376,376,5472,359.3C5568,343,5664,294,5760,285.8C5856,278,5952,310,6048,269.5C6144,229,6240,114,6336,57.2C6432,0,6528,0,6624,16.3C6720,33,6816,65,6864,81.7L6912,98L6912,490L6864,490C6816,490,6720,490,6624,490C6528,490,6432,490,6336,490C6240,490,6144,490,6048,490C5952,490,5856,490,5760,490C5664,490,5568,490,5472,490C5376,490,5280,490,5184,490C5088,490,4992,490,4896,490C4800,490,4704,490,4608,490C4512,490,4416,490,4320,490C4224,490,4128,490,4032,490C3936,490,3840,490,3744,490C3648,490,3552,490,3456,490C3360,490,3264,490,3168,490C3072,490,2976,490,2880,490C2784,490,2688,490,2592,490C2496,490,2400,490,2304,490C2208,490,2112,490,2016,490C1920,490,1824,490,1728,490C1632,490,1536,490,1440,490C1344,490,1248,490,1152,490C1056,490,960,490,864,490C768,490,672,490,576,490C480,490,384,490,288,490C192,490,96,490,48,490L0,490Z"/></svg>