<?xml version="1.0" standalone="no"?>
<svg xmlns:xlink="http://www.w3.org/1999/xlink" id="wave" style="transform:rotate(0deg); transition: 0.3s" viewBox="0 0 1440 490" version="1.1"
    xmlns="http://www.w3.org/2000/svg">
    <defs>
        <linearGradient id="sw-gradient-0" x1="0" x2="0" y1="1" y2="0">
            <stop stop-color="rgba(44.905, 31.692, 102.882, 1)" offset="0%"/>
            <stop stop-color="rgba(120.644, 139.541, 244.043, 1)" offset="100%"/>
        </linearGradient>
    </defs>
    <path style="transform:translate(0, 0px); opacity:1" fill="url(#sw-gradient-0)" d="M0,343L26.7,285.8C53.3,229,107,114,160,89.8C213.3,65,267,131,320,130.7C373.3,131,427,65,480,73.5C533.3,82,587,163,640,220.5C693.3,278,747,310,800,302.2C853.3,294,907,245,960,187.8C1013.3,131,1067,65,1120,65.3C1173.3,65,1227,131,1280,204.2C1333.3,278,1387,359,1440,351.2C1493.3,343,1547,245,1600,245C1653.3,245,1707,343,1760,351.2C1813.3,359,1867,278,1920,245C1973.3,212,2027,229,2080,269.5C2133.3,310,2187,376,2240,383.8C2293.3,392,2347,343,2400,343C2453.3,343,2507,392,2560,408.3C2613.3,425,2667,408,2720,359.3C2773.3,310,2827,229,2880,220.5C2933.3,212,2987,278,3040,285.8C3093.3,294,3147,245,3200,220.5C3253.3,196,3307,196,3360,228.7C3413.3,261,3467,327,3520,326.7C3573.3,327,3627,261,3680,253.2C3733.3,245,3787,294,3813,318.5L3840,343L3840,490L3813.3,490C3786.7,490,3733,490,3680,490C3626.7,490,3573,490,3520,490C3466.7,490,3413,490,3360,490C3306.7,490,3253,490,3200,490C3146.7,490,3093,490,3040,490C2986.7,490,2933,490,2880,490C2826.7,490,2773,490,2720,490C2666.7,490,2613,490,2560,490C2506.7,490,2453,490,2400,490C2346.7,490,2293,490,2240,490C2186.7,490,2133,490,2080,490C2026.7,490,1973,490,1920,490C1866.7,490,1813,490,1760,490C1706.7,490,1653,490,1600,490C1546.7,490,1493,490,1440,490C1386.7,490,1333,490,1280,490C1226.7,490,1173,490,1120,490C1066.7,490,1013,490,960,490C906.7,490,853,490,800,490C746.7,490,693,490,640,490C586.7,490,533,490,480,490C426.7,490,373,490,320,490C266.7,490,213,490,160,490C106.7,490,53,490,27,490L0,490Z"/>
    <defs>
        <linearGradient id="sw-gradient-1" x1="0" x2="0" y1="1" y2="0">
            <stop stop-color="rgba(64.486, 78.569, 182.57, 1)" offset="0%"/>
            <stop stop-color="rgba(155.18, 176.318, 250.873, 1)" offset="100%"/>
        </linearGradient>
    </defs>
    <path style="transform:translate(0, 50px); opacity:0.9" fill="url(#sw-gradient-1)" d="M0,98L26.7,122.5C53.3,147,107,196,160,212.3C213.3,229,267,212,320,187.8C373.3,163,427,131,480,106.2C533.3,82,587,65,640,65.3C693.3,65,747,82,800,114.3C853.3,147,907,196,960,204.2C1013.3,212,1067,180,1120,155.2C1173.3,131,1227,114,1280,138.8C1333.3,163,1387,229,1440,220.5C1493.3,212,1547,131,1600,114.3C1653.3,98,1707,147,1760,171.5C1813.3,196,1867,196,1920,228.7C1973.3,261,2027,327,2080,343C2133.3,359,2187,327,2240,318.5C2293.3,310,2347,327,2400,351.2C2453.3,376,2507,408,2560,416.5C2613.3,425,2667,408,2720,351.2C2773.3,294,2827,196,2880,196C2933.3,196,2987,294,3040,318.5C3093.3,343,3147,294,3200,294C3253.3,294,3307,343,3360,334.8C3413.3,327,3467,261,3520,236.8C3573.3,212,3627,229,3680,261.3C3733.3,294,3787,343,3813,367.5L3840,392L3840,490L3813.3,490C3786.7,490,3733,490,3680,490C3626.7,490,3573,490,3520,490C3466.7,490,3413,490,3360,490C3306.7,490,3253,490,3200,490C3146.7,490,3093,490,3040,490C2986.7,490,2933,490,2880,490C2826.7,490,2773,490,2720,490C2666.7,490,2613,490,2560,490C2506.7,490,2453,490,2400,490C2346.7,490,2293,490,2240,490C2186.7,490,2133,490,2080,490C2026.7,490,1973,490,1920,490C1866.7,490,1813,490,1760,490C1706.7,490,1653,490,1600,490C1546.7,490,1493,490,1440,490C1386.7,490,1333,490,1280,490C1226.7,490,1173,490,1120,490C1066.7,490,1013,490,960,490C906.7,490,853,490,800,490C746.7,490,693,490,640,490C586.7,490,533,490,480,490C426.7,490,373,490,320,490C266.7,490,213,490,160,490C106.7,490,53,490,27,490L0,490Z"/>
</svg>