<svg xmlns="http://www.w3.org/2000/svg" width="484.39" height="501.013" viewBox="0 0 484.39 501.013">
  <path id="phone-alt-solid" d="M470.574,354.041,364.612,307.07a22.22,22.22,0,0,0-26.49,6.752l-46.926,59.3c-73.646-35.915-132.914-97.217-167.637-173.39L180.892,151.2a23.953,23.953,0,0,0,6.528-27.4L142.007,14.2A22.674,22.674,0,0,0,115.99.6L17.6,24.082A23.333,23.333,0,0,0,0,46.971c0,251,196.691,454.049,438.984,454.049a22.882,22.882,0,0,0,22.138-18.2l22.706-101.77a23.982,23.982,0,0,0-13.255-27.008Z" transform="translate(0 -0.006)" fill="#585abd" opacity="0.17"/>
</svg>
